<svg xmlns="http://www.w3.org/2000/svg" version="1.1" xmlns:xlink="http://www.w3.org/1999/xlink" xmlns:svgjs="http://svgjs.dev/svgjs" width="1000" height="623" viewBox="0 0 1000 623"><g transform="matrix(1,0,0,1,-0.6060606060606233,115.14499423383631)"><svg viewBox="0 0 396 247" data-background-color="#282634" preserveAspectRatio="xMidYMid meet" height="623" width="1000" xmlns="http://www.w3.org/2000/svg" xmlns:xlink="http://www.w3.org/1999/xlink"><g id="tight-bounds" transform="matrix(1,0,0,1,0.2400000000000091,-0.09999999999999432)"><svg viewBox="0 0 395.52 247.2" height="247.2" width="395.52"><g><svg></svg></g><g><svg viewBox="0 0 395.52 247.2" height="247.2" width="395.52"><g transform="matrix(1,0,0,1,75.54432,70.61993752207165)"><svg viewBox="0 0 244.43135999999998 105.96012495585668" height="105.96012495585668" width="244.43135999999998"><g><svg viewBox="0 0 244.43135999999998 105.96012495585668" height="105.96012495585668" width="244.43135999999998"><g><svg viewBox="0 0 244.43135999999998 105.96012495585668" height="105.96012495585668" width="244.43135999999998"><g><svg viewBox="0 0 244.43135999999998 105.96012495585668" height="105.96012495585668" width="244.43135999999998"><g id="textblocktransform"><svg viewBox="0 0 244.43135999999998 105.96012495585668" height="105.96012495585668" width="244.43135999999998" id="textblock"><g><svg viewBox="0 0 244.43135999999998 57.149828246445495" height="57.149828246445495" width="244.43135999999998"><g transform="matrix(1,0,0,1,0,0)"><svg width="244.43135999999998" viewBox="5.050000190734863 -36.400001525878906 158.239990234375 37" height="57.149828246445495" data-palette-color="#ff4057"><path d="M6.3 0Q5.45 0 5.45-1.1L5.45-1.1 5.35-30Q5.35-33.55 5.05-34.75L5.05-34.75Q9.4-35 14.75-35L14.75-35Q21.15-35 24.55-30.6 27.95-26.2 27.95-17.2L27.95-17.2Q27.95-8.3 24.6-4.15 21.25 0 14.75 0L14.75 0 6.3 0ZM6.9-1.4L14.75-1.4Q20.4-1.4 23.38-5.2 26.35-9 26.35-17.2L26.35-17.2Q26.35-25.5 23.35-29.55 20.35-33.6 14.75-33.6L14.75-33.6 6.8-33.6 6.9-1.4ZM44.8 0.6Q39.75 0.6 36.92-2.85 34.1-6.3 34.1-12.5L34.1-12.5Q34.1-18.7 36.92-22.15 39.75-25.6 44.8-25.6L44.8-25.6Q49.85-25.6 52.67-22.15 55.5-18.7 55.5-12.5L55.5-12.5Q55.5-6.3 52.67-2.85 49.85 0.6 44.8 0.6L44.8 0.6ZM44.8-0.8Q49.1-0.8 51.5-3.9 53.9-7 53.9-12.5L53.9-12.5Q53.9-18 51.5-21.1 49.1-24.2 44.8-24.2L44.8-24.2Q40.5-24.2 38.1-21.1 35.7-18 35.7-12.5L35.7-12.5Q35.7-7 38.1-3.9 40.5-0.8 44.8-0.8L44.8-0.8ZM83.4-2Q83.9-1.45 83.9-0.9L83.9-0.9Q83.9-0.35 83.35-0.03 82.8 0.3 81.9 0.3L81.9 0.3Q80.4 0.3 79.72-0.68 79.05-1.65 79.05-3.65L79.05-3.65 79.05-5.95Q78-2.9 75.6-1.15 73.2 0.6 70.4 0.6L70.4 0.6Q66.35 0.6 64.52-1.88 62.7-4.35 62.65-10.35L62.65-10.35 62.6-20.85Q62.6-24 62.3-25.2L62.3-25.2Q62.7-25.6 63.2-25.6L63.2-25.6Q64.05-25.6 64.05-24.5L64.05-24.5 64.1-10.3Q64.1-6.65 64.75-4.58 65.4-2.5 66.8-1.65 68.2-0.8 70.55-0.8L70.55-0.8Q72.45-0.8 74.4-1.93 76.35-3.05 77.7-5.75 79.05-8.45 79.05-12.85L79.05-12.85Q79.05-20.35 79-22.35 78.95-24.35 78.75-25.2L78.75-25.2Q79.15-25.6 79.65-25.6L79.65-25.6Q80.5-25.6 80.5-24.5L80.5-24.5 80.55-3.6Q80.55-2.2 80.87-1.65 81.2-1.1 82.05-1.1L82.05-1.1Q83-1.1 83.4-2L83.4-2ZM110.54-1.85Q110.79-1.55 110.79-1.1L110.79-1.1Q110.79-0.4 110.14 0 109.49 0.4 108.79 0.4L108.79 0.4Q107.99 0.4 107.29-0.15 106.59-0.7 106.14-1.55L106.14-1.55 100.89-10.9Q96.99-9.35 92.04-8.05L92.04-8.05Q92.04-3.35 92.09-2.1 92.14-0.85 92.34 0L92.34 0Q91.94 0.4 91.44 0.4L91.44 0.4Q90.59 0.4 90.59-0.7L90.59-0.7 90.54-35.3Q90.54-36.4 91.49-36.4L91.49-36.4Q91.99-36.4 92.39-36L92.39-36Q92.29-35.65 92.19-34.48 92.09-33.3 92.09-32L92.09-32 92.04-16.75Q93.19-20.75 96.09-23.18 98.99-25.6 102.79-25.6L102.79-25.6Q105.59-25.6 107.24-24.1 108.89-22.6 108.89-19.75L108.89-19.75Q108.89-16.9 106.99-14.85 105.09-12.8 102.14-11.45L102.14-11.45Q102.29-11.25 102.94-10.25L102.94-10.25 107.34-2.35Q107.74-1.6 108.14-1.3 108.54-1 109.09-1L109.09-1Q110.04-1 110.54-1.85L110.54-1.85ZM92.04-9.25Q96.84-10.65 100.02-11.9 103.19-13.15 105.29-15.08 107.39-17 107.39-19.7L107.39-19.7Q107.39-22 106.12-23.1 104.84-24.2 102.69-24.2L102.69-24.2Q99.44-24.2 97.04-22.35 94.64-20.5 93.34-17.1 92.04-13.7 92.04-9.25L92.04-9.25ZM138.29-2.25Q138.74-1.75 138.74-1.2L138.74-1.2Q138.74-0.45 137.99 0.03 137.24 0.5 136.34 0.5L136.34 0.5Q134.64 0.5 133.81-0.6 132.99-1.7 132.99-3.65L132.99-3.65 132.99-8Q131.14-3.95 127.94-1.68 124.74 0.6 121.34 0.6L121.34 0.6Q118.44 0.6 116.94-0.98 115.44-2.55 115.44-5.1L115.44-5.1Q115.44-7.8 117.42-9.85 119.39-11.9 123.29-12.95L123.29-12.95Q126.29-13.75 130.09-13.75L130.09-13.75Q131.59-13.75 132.99-13.6L132.99-13.6 132.99-14.9Q132.99-19.6 131.02-21.9 129.04-24.2 124.74-24.2L124.74-24.2Q121.99-24.2 119.97-23.23 117.94-22.25 117.94-19.85L117.94-19.85Q117.94-18.75 118.59-17.73 119.24-16.7 120.44-16.4L120.44-16.4Q120.19-15.95 119.79-15.78 119.39-15.6 119.09-15.6L119.09-15.6Q118.04-15.6 117.27-16.93 116.49-18.25 116.49-19.75L116.49-19.75Q116.49-22.65 118.77-24.13 121.04-25.6 125.04-25.6L125.04-25.6Q134.49-25.6 134.49-14.9L134.49-14.9 134.49-3.55Q134.49-0.9 136.39-0.9L136.39-0.9Q136.89-0.9 137.44-1.28 137.99-1.65 138.29-2.25L138.29-2.25ZM121.64-0.75Q124.14-0.75 126.77-2.5 129.39-4.25 131.17-7 132.94-9.75 132.99-12.55L132.99-12.55Q132.49-12.6 131.29-12.6L131.29-12.6Q129.34-12.6 127.14-12.33 124.94-12.05 123.39-11.6L123.39-11.6Q117.04-9.7 117.04-5.2L117.04-5.2Q117.04-3.3 118.14-2.02 119.24-0.75 121.64-0.75L121.64-0.75ZM162.94-4.35Q163.04-1.05 163.29 0L163.29 0Q162.89 0.4 162.39 0.4L162.39 0.4Q161.44 0.4 161.44-0.7L161.44-0.7 161.44-14.9Q161.39-19.65 159.81-21.93 158.24-24.2 154.74-24.2L154.74-24.2Q152.79-24.2 150.79-23.08 148.79-21.95 147.41-19.3 146.04-16.65 146.04-12.35L146.04-12.35Q146.04-4.85 146.09-2.85 146.14-0.85 146.34 0L146.34 0Q145.94 0.4 145.44 0.4L145.44 0.4Q144.54 0.4 144.54-0.7L144.54-0.7 144.54-21.6Q144.49-23 144.16-23.55 143.84-24.1 143.04-24.1L143.04-24.1Q142.09-24.1 141.69-23.2L141.69-23.2Q141.19-23.75 141.19-24.3L141.19-24.3Q141.19-24.85 141.74-25.18 142.29-25.5 143.19-25.5L143.19-25.5Q144.69-25.5 145.36-24.53 146.04-23.55 146.04-21.55L146.04-21.55 146.04-19.15Q147.09-22.15 149.54-23.88 151.99-25.6 154.89-25.6L154.89-25.6Q162.94-25.6 162.94-14.85L162.94-14.85 162.94-4.35Z" opacity="1" transform="matrix(1,0,0,1,0,0)" fill="#ff4057" class="wordmark-text-0" data-fill-palette-color="primary" id="text-0"></path></svg></g></svg></g><g transform="matrix(1,0,0,1,0,70.64153109955336)"><svg viewBox="0 0 244.43135999999998 35.318593856303316" height="35.318593856303316" width="244.43135999999998"><g transform="matrix(1,0,0,1,0,0)"><svg width="244.43135999999998" viewBox="5.860000133514404 -36.88999938964844 258.6800231933594 37.380001068115234" height="35.318593856303316" data-palette-color="#dcdcdc"><path d="M20.04-35.01L20.04-35.01Q24.05-35.01 28.66-33.62L28.66-33.62 27.32-29.83Q22.92-31.1 19.7-31.1L19.7-31.1Q16.09-31.1 13.59-29.58 11.08-28.05 11.08-25.63L11.08-25.63Q11.08-24.29 11.89-23.24 12.7-22.19 14.01-21.53 15.33-20.87 17.02-20.23 18.7-19.58 20.45-19.04 22.19-18.51 23.88-17.68 25.56-16.85 26.88-15.86 28.2-14.87 29-13.28 29.81-11.69 29.81-9.69L29.81-9.69Q29.81-8.3 29.37-6.92 28.93-5.54 27.91-4.19 26.88-2.83 25.37-1.81 23.85-0.78 21.55-0.15 19.24 0.49 16.41 0.49 13.57 0.49 11.19-0.1 8.81-0.68 5.86-1.86L5.86-1.86 7.28-5.88Q13.38-3.61 16.92-3.61L16.92-3.61Q20.63-3.61 22.96-5.1 25.29-6.59 25.29-9.08L25.29-9.08Q25.29-10.74 24.26-11.95 23.22-13.16 21.57-13.9 19.92-14.65 17.92-15.3 15.92-15.94 13.93-16.69 11.94-17.43 10.29-18.41 8.64-19.38 7.6-21.04 6.57-22.71 6.57-24.95L6.57-24.95Q6.57-26.95 7.53-28.78 8.5-30.62 10.21-31.99 11.91-33.37 14.48-34.19 17.04-35.01 20.04-35.01ZM54.59-24.58L54.59-24.58Q59.59-24.58 62.82-21.39 66.06-18.19 66.06-12.55L66.06-12.55Q66.06-6.57 62.75-3.04 59.44 0.49 54.19 0.49L54.19 0.49Q49.19 0.49 46.02-2.82 42.84-6.13 42.84-11.79L42.84-11.79Q42.84-17.63 46.08-21.11 49.31-24.58 54.59-24.58ZM54.24-21.17L54.24-21.17Q51.24-21.17 48.99-18.85 46.75-16.53 46.75-12.48L46.75-12.48Q46.75-8.45 48.95-5.69 51.14-2.93 54.63-2.93L54.63-2.93Q57.86-2.93 60.01-5.37 62.15-7.81 62.15-11.74L62.15-11.74Q62.15-13.99 61.46-15.82 60.76-17.65 59.63-18.8 58.49-19.95 57.1-20.56 55.71-21.17 54.24-21.17ZM91.84-31.54L91.84-31.54Q90.4-31.54 89.35-31.14 88.3-30.74 87.77-30.21 87.25-29.69 86.94-28.94 86.64-28.2 86.58-27.72 86.51-27.25 86.51-26.73L86.51-26.73 86.51-24.12 94.6-24.12 94.6-20.97 86.51-20.97 86.51 0 82.46 0 82.46-20.97 78.97-20.97 78.97-24.12 82.46-24.12 82.46-26.56Q82.46-29.74 83.41-31.4L83.41-31.4Q84.37-33.08 86.22-33.98 88.08-34.89 90.52-34.89L90.52-34.89Q93.13-34.89 96.3-33.94L96.3-33.94 95.69-30.96Q93.42-31.54 91.84-31.54ZM118.78-3.15L119.35-0.42Q115.81 0.49 113.83 0.49 111.85 0.49 110.48-0.15 109.12-0.78 108.41-1.95 107.7-3.13 107.4-4.48 107.09-5.83 107.09-7.59L107.09-7.59 107.09-20.97 103.84-20.97 103.84-24.12 107.09-24.12 107.09-31.03 111.09-31.03 111.09-24.12 118.44-24.12 118.44-20.97 111.09-20.97 111.09-7.64Q111.09-2.64 115.05-2.64L115.05-2.64Q115.76-2.64 118.78-3.15L118.78-3.15ZM151.57-34.94L151.57-34.94Q156.3-34.94 160.99-33.08L160.99-33.08 159.72-29.64Q154.99-31.27 151.45-31.27L151.45-31.27Q148.52-31.27 146.01-30.11 143.51-28.96 141.86-27.01 140.22-25.07 139.29-22.57 138.36-20.07 138.36-17.33L138.36-17.33Q138.36-14.5 139.35-11.95 140.34-9.4 142.12-7.48 143.9-5.57 146.55-4.44 149.2-3.32 152.35-3.32L152.35-3.32Q156.11-3.32 160.19-4.79L160.19-4.79 161.46-1.71Q156.35 0.49 151.3 0.49L151.3 0.49Q148.17 0.49 145.44-0.42 142.71-1.32 140.67-2.94 138.63-4.57 137.16-6.79 135.7-9.01 134.95-11.68 134.21-14.36 134.21-17.31L134.21-17.31Q134.21-22.31 136.3-26.29 138.38-30.27 142.36-32.6 146.34-34.94 151.57-34.94ZM184.28-24.58L184.28-24.58Q189.28-24.58 192.52-21.39 195.75-18.19 195.75-12.55L195.75-12.55Q195.75-6.57 192.45-3.04 189.14 0.49 183.89 0.49L183.89 0.49Q178.88 0.49 175.71-2.82 172.54-6.13 172.54-11.79L172.54-11.79Q172.54-17.63 175.77-21.11 179.01-24.58 184.28-24.58ZM183.94-21.17L183.94-21.17Q180.93-21.17 178.69-18.85 176.44-16.53 176.44-12.48L176.44-12.48Q176.44-8.45 178.64-5.69 180.84-2.93 184.33-2.93L184.33-2.93Q187.55-2.93 189.7-5.37 191.85-7.81 191.85-11.74L191.85-11.74Q191.85-13.99 191.15-15.82 190.46-17.65 189.32-18.8 188.18-19.95 186.79-20.56 185.4-21.17 183.94-21.17ZM208.54-11.65L208.54-11.65Q208.54-14.77 209.42-17.26 210.3-19.75 211.84-21.34 213.38-22.92 215.44-23.77 217.5-24.61 219.89-24.61L219.89-24.61Q222.78-24.61 225.73-23.32L225.73-23.32 225.73-36.89 229.73-36.89 229.73 0 226.95 0 226.29-1.51Q222.9 0.49 219.21 0.49L219.21 0.49Q217.7 0.49 216.26 0.12 214.82-0.24 213.4-1.15 211.98-2.05 210.92-3.41 209.86-4.76 209.2-6.88 208.54-9.01 208.54-11.65ZM220.53-2.81L220.53-2.81Q223.19-2.81 225.73-4.17L225.73-4.17 225.73-20.29Q223.12-21.46 220.48-21.46L220.48-21.46Q219.36-21.46 218.31-21.22 217.26-20.97 216.16-20.34 215.06-19.7 214.27-18.7 213.47-17.7 212.96-16.05 212.45-14.4 212.45-12.28L212.45-12.28Q212.45-10.08 212.99-8.36 213.52-6.64 214.35-5.62 215.18-4.59 216.31-3.93 217.43-3.27 218.45-3.04 219.48-2.81 220.53-2.81ZM255.58-24.58L255.58-24.58Q257.34-24.58 258.74-24.16 260.15-23.73 261.08-23.07 262-22.41 262.68-21.35 263.35-20.29 263.7-19.3 264.05-18.31 264.25-16.92 264.45-15.53 264.49-14.5 264.54-13.48 264.54-12.08L264.54-12.08 264.54-10.18 247.97-10.18Q247.97-8.86 248.56-7.56 249.16-6.25 250.25-5.16 251.33-4.08 253.1-3.39 254.87-2.71 257.02-2.71L257.02-2.71Q259.56-2.71 262.52-3.59L262.52-3.59 263.22-0.85Q259.29 0.49 255.51 0.49L255.51 0.49Q252.85 0.49 250.79-0.22 248.72-0.93 247.47-2.06 246.21-3.2 245.4-4.79 244.6-6.37 244.29-7.95 243.99-9.52 243.99-11.28L243.99-11.28Q243.99-13.99 244.65-16.24 245.3-18.48 246.43-20.01 247.55-21.53 249.05-22.58 250.55-23.63 252.2-24.11 253.85-24.58 255.58-24.58ZM254.73-21.12L254.73-21.12Q252.58-21.12 251.03-19.93 249.48-18.75 248.77-16.99 248.06-15.23 248.06-13.21L248.06-13.21 260.66-13.21Q260.66-21.12 254.73-21.12Z" opacity="1" transform="matrix(1,0,0,1,0,0)" fill="#dcdcdc" class="slogan-text-1" data-fill-palette-color="secondary" id="text-1"></path></svg></g></svg></g></svg></g></svg></g><g></g></svg></g></svg></g></svg></g><g><path d="M95.202 57.128A122.216 122.216 0 0 1 300.318 57.128L295.164 57.128A117.062 117.062 0 0 0 100.356 57.128L95.202 57.128M95.202 190.072A122.216 122.216 0 0 0 300.318 190.072L295.164 190.072A117.062 117.062 0 0 1 100.356 190.072L95.202 190.072" fill="#ff4057" stroke="transparent" data-fill-palette-color="tertiary"></path></g></svg></g><defs></defs></svg><rect width="395.52" height="247.2" fill="none" stroke="none" visibility="hidden"></rect></g></svg></g></svg>